<svg width="1200" height="600" xmlns="http://www.w3.org/2000/svg">
  <defs>
    <linearGradient id="bg1" x1="0%" y1="0%" x2="100%" y2="100%">
      <stop offset="0%" style="stop-color:#667eea;stop-opacity:1" />
      <stop offset="100%" style="stop-color:#764ba2;stop-opacity:1" />
    </linearGradient>
  </defs>
  <rect width="1200" height="600" fill="url(#bg1)"/>
  
  <!-- Автомобиль -->
  <g transform="translate(800, 300)">
    <rect x="-80" y="-20" width="160" height="40" rx="20" fill="#333"/>
    <rect x="-60" y="-40" width="120" height="20" rx="10" fill="#333"/>
    <circle cx="-40" cy="20" r="15" fill="#222"/>
    <circle cx="40" cy="20" r="15" fill="#222"/>
    <circle cx="-40" cy="20" r="8" fill="#666"/>
    <circle cx="40" cy="20" r="8" fill="#666"/>
  </g>
  
  <!-- Бутылки -->
  <g transform="translate(200, 400)">
    <rect x="-15" y="-60" width="30" height="60" rx="5" fill="#fff" opacity="0.9"/>
    <rect x="-10" y="-50" width="20" height="40" fill="#4CAF50"/>
    <rect x="-5" y="-45" width="10" height="30" fill="#81C784"/>
  </g>
  
  <g transform="translate(250, 380)">
    <rect x="-12" y="-50" width="24" height="50" rx="5" fill="#fff" opacity="0.9"/>
    <rect x="-8" y="-40" width="16" height="30" fill="#2196F3"/>
    <rect x="-4" y="-35" width="8" height="20" fill="#64B5F6"/>
  </g>
  
  <g transform="translate(300, 420)">
    <rect x="-10" y="-40" width="20" height="40" rx="5" fill="#fff" opacity="0.9"/>
    <rect x="-6" y="-30" width="12" height="20" fill="#FF9800"/>
    <rect x="-3" y="-25" width="6" height="10" fill="#FFB74D"/>
  </g>
</svg>

